<svg xmlns="http://www.w3.org/2000/svg" xmlns:xlink="http://www.w3.org/1999/xlink" width="500" zoomAndPan="magnify" viewBox="0 0 375 374.999991" height="500" preserveAspectRatio="xMidYMid meet" version="1.0"><defs><clipPath id="id1"><path d="M 15.152344 37.222656 L 375 37.222656 L 375 375 L 15.152344 375 Z M 15.152344 37.222656 " clip-rule="nonzero"/></clipPath></defs><path fill="#000000" d="M 387.890625 364.660156 C 388.089844 364.660156 388.289062 364.660156 388.484375 364.710938 C 389.824219 365.058594 390.617188 366.394531 390.320312 367.683594 L 381.691406 402.769531 C 381.492188 403.609375 380.847656 404.304688 379.953125 404.550781 C 379.109375 404.800781 378.167969 404.550781 377.523438 403.957031 L 351.429688 378.933594 C 350.4375 377.992188 350.386719 376.40625 351.378906 375.414062 C 352.324219 374.421875 353.910156 374.375 354.902344 375.363281 L 377.871094 397.417969 L 385.507812 366.496094 C 385.757812 365.453125 386.75 364.660156 387.890625 364.660156 Z M 387.890625 364.660156 " fill-opacity="1" fill-rule="nonzero"/><g clip-path="url(#id1)"><path fill="#000000" d="M 17.980469 37.496094 C 18.925781 37.496094 19.867188 38.042969 20.261719 38.984375 C 22.890625 45.027344 25.523438 51.074219 28.199219 57.121094 C 28.746094 58.359375 28.199219 59.84375 26.960938 60.390625 C 25.671875 60.9375 24.230469 60.390625 23.6875 59.152344 C 21.007812 53.105469 18.378906 47.011719 15.75 40.964844 C 15.203125 39.726562 15.800781 38.238281 17.039062 37.695312 C 17.335938 37.546875 17.632812 37.496094 17.980469 37.496094 Z M 34.203125 73.671875 C 35.144531 73.671875 36.039062 74.167969 36.433594 75.109375 C 39.511719 81.5 42.386719 87.25 45.3125 92.699219 C 45.960938 93.890625 45.511719 95.425781 44.273438 96.070312 C 43.03125 96.714844 41.542969 96.269531 40.898438 95.03125 C 37.972656 89.527344 35.046875 83.683594 31.921875 77.238281 C 31.324219 76 31.871094 74.515625 33.109375 73.917969 C 33.457031 73.769531 33.855469 73.671875 34.203125 73.671875 Z M 362.492188 82.195312 C 364.675781 82.292969 366.511719 82.292969 368.542969 82.441406 C 369.882812 82.542969 370.925781 83.730469 370.824219 85.117188 C 370.726562 86.457031 369.488281 87.449219 368.148438 87.398438 C 366.3125 87.25 364.476562 87.152344 362.589844 87.152344 C 362.589844 87.152344 362.542969 87.152344 362.542969 87.152344 C 358.226562 87.152344 353.664062 87.546875 349.050781 88.390625 C 347.660156 88.585938 346.421875 87.746094 346.171875 86.359375 C 345.925781 85.019531 346.816406 83.730469 348.15625 83.484375 C 353.066406 82.640625 357.878906 82.195312 362.492188 82.195312 Z M 387.445312 87.300781 C 387.792969 87.300781 388.136719 87.347656 388.484375 87.496094 C 392.652344 89.378906 396.621094 91.808594 400.242188 94.683594 C 402.027344 96.121094 403.765625 97.65625 405.402344 99.292969 C 406.34375 100.28125 406.34375 101.820312 405.351562 102.808594 C 404.359375 103.75 402.820312 103.75 401.828125 102.761719 C 400.339844 101.273438 398.753906 99.835938 397.117188 98.546875 C 393.792969 95.921875 390.171875 93.742188 386.351562 92.007812 C 385.113281 91.460938 384.566406 89.976562 385.113281 88.734375 C 385.609375 87.84375 386.5 87.300781 387.445312 87.300781 Z M 329.503906 88.835938 C 330.496094 88.835938 331.4375 89.429688 331.835938 90.421875 C 332.332031 91.710938 331.6875 93.148438 330.398438 93.640625 C 324.496094 95.871094 318.589844 98.695312 312.789062 101.917969 C 311.597656 102.5625 310.058594 102.164062 309.414062 100.976562 C 308.71875 99.789062 309.167969 98.300781 310.355469 97.605469 C 316.359375 94.238281 322.511719 91.363281 328.613281 89.035156 C 328.910156 88.886719 329.207031 88.835938 329.503906 88.835938 Z M 294.929688 108.113281 C 295.671875 108.113281 296.417969 108.460938 296.914062 109.105469 C 297.757812 110.195312 297.507812 111.730469 296.417969 112.574219 C 294.085938 114.308594 291.753906 116.140625 289.570312 117.972656 C 286.792969 120.304688 284.066406 122.683594 281.335938 125.109375 C 280.296875 126.050781 278.757812 125.953125 277.816406 124.910156 C 276.921875 123.871094 276.972656 122.335938 278.015625 121.394531 C 280.792969 118.914062 283.519531 116.488281 286.347656 114.160156 C 288.628906 112.273438 290.960938 110.390625 293.390625 108.558594 C 293.886719 108.261719 294.382812 108.113281 294.929688 108.113281 Z M 52.953125 108.609375 C 53.796875 108.609375 54.589844 109.003906 55.085938 109.796875 C 58.65625 115.59375 62.328125 121.046875 66.050781 126.101562 C 66.84375 127.191406 66.644531 128.777344 65.503906 129.570312 C 64.414062 130.414062 62.824219 130.164062 62.03125 129.023438 C 58.261719 123.871094 54.492188 118.269531 50.871094 112.421875 C 50.175781 111.234375 50.523438 109.746094 51.664062 109.003906 C 52.0625 108.707031 52.507812 108.609375 52.953125 108.609375 Z M 414.824219 114.851562 C 415.769531 114.851562 416.660156 115.398438 417.058594 116.289062 C 419.886719 122.285156 421.917969 128.875 423.109375 135.8125 C 423.359375 137.152344 422.414062 138.441406 421.078125 138.6875 C 419.738281 138.9375 418.449219 137.996094 418.199219 136.65625 C 417.109375 130.164062 415.222656 124.019531 412.59375 118.421875 C 412 117.179688 412.542969 115.695312 413.785156 115.101562 C 414.132812 114.902344 414.480469 114.851562 414.824219 114.851562 Z M 265.117188 134.226562 C 265.761719 134.226562 266.457031 134.476562 266.953125 135.019531 C 267.894531 136.011719 267.84375 137.597656 266.851562 138.539062 C 261.992188 143.050781 257.128906 147.609375 252.167969 151.96875 C 251.128906 152.859375 249.589844 152.8125 248.648438 151.769531 C 247.753906 150.730469 247.804688 149.195312 248.847656 148.253906 C 253.757812 143.890625 258.570312 139.382812 263.429688 134.871094 C 263.875 134.476562 264.519531 134.226562 265.117188 134.226562 Z M 76.515625 140.421875 C 77.210938 140.421875 77.855469 140.71875 78.351562 141.265625 C 79.246094 142.257812 80.1875 143.246094 81.128906 144.238281 C 84.652344 147.953125 88.371094 151.523438 92.289062 154.894531 C 93.332031 155.785156 93.433594 157.371094 92.539062 158.410156 C 91.644531 159.453125 90.058594 159.550781 89.015625 158.660156 C 85 155.191406 81.078125 151.472656 77.457031 147.65625 C 76.515625 146.617188 75.523438 145.625 74.632812 144.585938 C 73.6875 143.542969 73.789062 142.007812 74.828125 141.066406 C 75.324219 140.621094 75.921875 140.421875 76.515625 140.421875 Z M 421.472656 153.457031 C 421.523438 153.457031 421.621094 153.457031 421.671875 153.457031 C 423.0625 153.554688 424.054688 154.742188 423.953125 156.132812 C 423.902344 156.824219 423.855469 157.519531 423.753906 158.214844 C 423.160156 164.011719 421.917969 170.007812 420.183594 176.054688 C 419.785156 177.339844 418.449219 178.132812 417.109375 177.738281 C 415.769531 177.339844 415.023438 176.003906 415.421875 174.664062 C 417.058594 168.917969 418.199219 163.21875 418.792969 157.667969 C 418.84375 157.023438 418.945312 156.328125 418.992188 155.6875 C 419.140625 154.445312 420.234375 153.457031 421.472656 153.457031 Z M 235.253906 160.34375 C 236 160.34375 236.742188 160.691406 237.238281 161.285156 C 238.082031 162.375 237.882812 163.910156 236.792969 164.753906 C 230.988281 169.214844 225.582031 172.929688 220.175781 176.101562 C 218.984375 176.796875 217.496094 176.398438 216.75 175.261719 C 216.054688 174.070312 216.453125 172.585938 217.59375 171.890625 C 222.804688 168.816406 228.0625 165.199219 233.714844 160.839844 C 234.210938 160.542969 234.757812 160.34375 235.253906 160.34375 Z M 106.578125 166.09375 C 107.023438 166.09375 107.519531 166.242188 107.917969 166.488281 C 113.421875 170.058594 119.175781 173.226562 124.980469 175.855469 C 126.222656 176.449219 126.765625 177.886719 126.222656 179.125 C 125.675781 180.363281 124.1875 180.910156 122.945312 180.363281 C 116.945312 177.640625 110.992188 174.367188 105.238281 170.652344 C 104.097656 169.90625 103.75 168.371094 104.492188 167.230469 C 104.988281 166.488281 105.785156 166.09375 106.578125 166.09375 Z M 201.074219 180.164062 C 202.066406 180.164062 203.011719 180.761719 203.40625 181.75 C 203.902344 183.039062 203.257812 184.476562 201.96875 184.921875 C 198.199219 186.359375 194.28125 187.550781 190.410156 188.441406 C 187.730469 189.085938 185.003906 189.582031 182.273438 189.976562 C 180.9375 190.175781 179.644531 189.234375 179.449219 187.898438 C 179.25 186.558594 180.191406 185.269531 181.53125 185.070312 C 184.109375 184.726562 186.691406 184.230469 189.21875 183.636719 C 192.890625 182.742188 196.5625 181.652344 200.183594 180.265625 C 200.53125 180.214844 200.828125 180.164062 201.074219 180.164062 Z M 142.589844 182.394531 C 142.789062 182.394531 143.039062 182.445312 143.234375 182.496094 C 149.632812 184.230469 156.035156 185.320312 162.285156 185.765625 C 163.671875 185.863281 164.664062 187.054688 164.566406 188.441406 C 164.464844 189.828125 163.226562 190.917969 161.886719 190.722656 C 155.289062 190.226562 148.59375 189.085938 141.894531 187.253906 C 140.558594 186.90625 139.8125 185.519531 140.160156 184.230469 C 140.507812 183.089844 141.5 182.394531 142.589844 182.394531 Z M 410.859375 191.464844 C 411.203125 191.464844 411.550781 191.515625 411.898438 191.710938 C 413.140625 192.308594 413.683594 193.746094 413.140625 194.984375 C 410.511719 200.730469 407.433594 206.53125 403.765625 212.722656 C 403.070312 213.914062 401.53125 214.308594 400.339844 213.617188 C 399.152344 212.921875 398.753906 211.386719 399.449219 210.195312 C 403.019531 204.152344 406.046875 198.5 408.625 192.902344 C 409.023438 191.960938 409.914062 191.464844 410.859375 191.464844 Z M 390.867188 225.65625 C 391.363281 225.65625 391.859375 225.804688 392.253906 226.105469 C 393.398438 226.898438 393.695312 228.433594 392.902344 229.523438 C 389.128906 235.023438 385.160156 240.425781 381.144531 245.679688 C 380.300781 246.769531 378.761719 246.964844 377.671875 246.125 C 376.582031 245.28125 376.382812 243.746094 377.226562 242.65625 C 381.195312 237.5 385.113281 232.148438 388.832031 226.746094 C 389.328125 226.054688 390.074219 225.65625 390.867188 225.65625 Z M 366.609375 256.976562 C 367.203125 256.976562 367.75 257.175781 368.246094 257.570312 C 369.289062 258.464844 369.386719 260.050781 368.496094 261.089844 C 364.128906 266.09375 359.566406 271 354.953125 275.757812 C 354.007812 276.75 352.421875 276.75 351.429688 275.808594 C 350.4375 274.867188 350.4375 273.28125 351.378906 272.289062 C 355.945312 267.632812 360.457031 262.773438 364.722656 257.820312 C 365.21875 257.273438 365.914062 256.976562 366.609375 256.976562 Z M 228.804688 269.613281 C 230.046875 269.613281 231.136719 270.554688 231.285156 271.792969 C 231.433594 273.132812 230.492188 274.371094 229.101562 274.519531 C 223.199219 275.214844 217.644531 276.699219 212.632812 278.980469 C 212.089844 279.226562 211.542969 279.476562 210.996094 279.773438 C 209.757812 280.367188 208.269531 279.921875 207.671875 278.683594 C 207.078125 277.441406 207.523438 275.957031 208.765625 275.363281 C 209.359375 275.066406 210.003906 274.765625 210.601562 274.46875 C 216.105469 271.992188 222.15625 270.355469 228.558594 269.613281 C 228.605469 269.613281 228.707031 269.613281 228.804688 269.613281 Z M 248.597656 270.011719 C 248.695312 270.011719 248.847656 270.011719 248.945312 270.011719 C 255.246094 270.902344 261.890625 272.4375 268.6875 274.667969 C 269.976562 275.113281 270.722656 276.5 270.277344 277.789062 C 269.828125 279.078125 268.441406 279.773438 267.148438 279.375 C 260.652344 277.246094 254.300781 275.757812 248.300781 274.914062 C 246.960938 274.71875 246.019531 273.480469 246.167969 272.140625 C 246.316406 270.902344 247.359375 270.011719 248.597656 270.011719 Z M 286.25 281.953125 C 286.597656 281.953125 286.992188 282.050781 287.339844 282.199219 C 293.34375 285.074219 299.246094 288.394531 304.898438 292.011719 C 306.042969 292.753906 306.386719 294.292969 305.644531 295.433594 C 304.898438 296.570312 303.363281 296.917969 302.222656 296.175781 C 296.714844 292.65625 291.011719 289.4375 285.207031 286.660156 C 283.964844 286.066406 283.46875 284.578125 284.066406 283.339844 C 284.460938 282.496094 285.304688 281.953125 286.25 281.953125 Z M 338.929688 285.371094 C 339.625 285.371094 340.269531 285.621094 340.765625 286.164062 C 341.707031 287.15625 341.609375 288.742188 340.617188 289.683594 C 335.707031 294.144531 330.597656 298.554688 325.488281 302.714844 C 324.445312 303.558594 322.855469 303.410156 322.015625 302.371094 C 321.171875 301.328125 321.320312 299.742188 322.363281 298.902344 C 327.421875 294.789062 332.429688 290.476562 337.292969 286.066406 C 337.691406 285.570312 338.285156 285.371094 338.929688 285.371094 Z M 194.675781 287.699219 C 195.222656 287.699219 195.769531 287.898438 196.214844 288.246094 C 197.304688 289.089844 197.453125 290.675781 196.609375 291.714844 C 192.59375 296.820312 189.765625 302.566406 188.527344 308.414062 C 188.226562 309.753906 186.9375 310.597656 185.550781 310.296875 C 184.210938 310 183.367188 308.664062 183.664062 307.324219 C 185.101562 300.785156 188.226562 294.292969 192.742188 288.644531 C 193.238281 288 193.933594 287.699219 194.675781 287.699219 Z M 319.535156 303.359375 C 320.078125 303.359375 320.625 303.558594 321.121094 303.90625 C 326.28125 308.167969 331.242188 312.777344 335.855469 317.582031 C 336.796875 318.574219 336.746094 320.160156 335.753906 321.101562 C 334.761719 322.042969 333.175781 321.992188 332.234375 321.003906 C 327.71875 316.292969 322.90625 311.835938 317.898438 307.722656 C 316.855469 306.828125 316.707031 305.292969 317.550781 304.253906 C 318.144531 303.65625 318.839844 303.359375 319.535156 303.359375 Z M 308.175781 310.398438 C 308.917969 310.398438 309.710938 310.746094 310.207031 311.4375 C 311 312.527344 310.753906 314.113281 309.664062 314.90625 C 304.253906 318.820312 298.699219 322.589844 293.144531 326.15625 C 292.003906 326.898438 290.464844 326.550781 289.722656 325.414062 C 288.976562 324.273438 289.324219 322.738281 290.464844 321.992188 C 295.972656 318.476562 301.429688 314.757812 306.734375 310.894531 C 307.132812 310.546875 307.628906 310.398438 308.175781 310.398438 Z M 187.535156 324.816406 C 188.527344 324.816406 189.417969 325.414062 189.816406 326.355469 L 190.261719 327.394531 C 192.59375 332.449219 196.363281 336.761719 201.421875 340.230469 C 202.5625 341.023438 202.863281 342.558594 202.066406 343.648438 C 201.324219 344.789062 199.738281 345.085938 198.644531 344.292969 C 192.792969 340.328125 188.476562 335.324219 185.746094 329.425781 C 185.550781 329.03125 185.351562 328.585938 185.203125 328.1875 C 184.707031 326.898438 185.300781 325.460938 186.542969 324.964844 C 186.886719 324.917969 187.234375 324.816406 187.535156 324.816406 Z M 274.738281 331.757812 C 275.632812 331.757812 276.476562 332.203125 276.921875 333.042969 C 277.566406 334.234375 277.171875 335.769531 275.980469 336.414062 L 274.34375 337.304688 C 268.140625 340.726562 262.933594 343.300781 258.023438 345.433594 C 256.78125 345.976562 255.292969 345.382812 254.75 344.144531 C 254.203125 342.90625 254.796875 341.417969 256.039062 340.875 C 260.800781 338.84375 265.859375 336.316406 271.914062 332.996094 L 273.5 332.101562 C 273.898438 331.855469 274.34375 331.757812 274.738281 331.757812 Z M 346.964844 331.90625 C 347.710938 331.90625 348.453125 332.25 348.949219 332.894531 C 353.019531 338.246094 356.789062 343.847656 360.160156 349.597656 C 360.855469 350.785156 360.457031 352.273438 359.269531 352.964844 C 358.078125 353.660156 356.589844 353.261719 355.894531 352.074219 C 352.621094 346.523438 348.949219 341.074219 344.980469 335.867188 C 344.136719 334.777344 344.386719 333.242188 345.476562 332.398438 C 345.925781 332.054688 346.421875 331.90625 346.964844 331.90625 Z M 238.132812 346.621094 C 239.320312 346.621094 240.363281 347.464844 240.5625 348.652344 C 240.808594 349.992188 239.917969 351.28125 238.578125 351.527344 C 234.957031 352.222656 231.382812 352.570312 227.960938 352.667969 L 226.722656 352.667969 C 223.84375 352.667969 220.867188 352.421875 217.992188 351.925781 C 216.652344 351.675781 215.710938 350.4375 215.957031 349.050781 C 216.207031 347.710938 217.496094 346.769531 218.835938 347.019531 C 221.464844 347.464844 224.140625 347.664062 226.722656 347.664062 L 227.863281 347.664062 C 231.039062 347.613281 234.3125 347.21875 237.683594 346.621094 C 237.832031 346.621094 237.980469 346.621094 238.132812 346.621094 Z M 367.054688 365.949219 C 368 365.949219 368.941406 366.496094 369.335938 367.4375 C 372.066406 373.582031 374.398438 379.921875 376.332031 386.316406 C 376.730469 387.605469 375.984375 388.992188 374.695312 389.390625 C 373.40625 389.785156 372.015625 389.042969 371.621094 387.753906 C 369.785156 381.609375 367.503906 375.414062 364.875 369.46875 C 364.328125 368.230469 364.875 366.742188 366.164062 366.195312 C 366.410156 366.046875 366.757812 365.949219 367.054688 365.949219 Z M 367.054688 365.949219 " fill-opacity="1" fill-rule="nonzero"/></g><path fill="#fdd28a" d="M 7.410156 92.632812 C 3.105469 86.160156 3.734375 77.648438 7.121094 73 C 41.035156 73.199219 75.113281 72.800781 109.027344 73 C 109.710938 73.007812 110.425781 73.019531 111.015625 73.351562 C 111.792969 73.796875 112.171875 74.695312 112.464844 75.542969 C 113.441406 78.394531 114.277344 89.269531 111.023438 91.1875 C 110.476562 91.511719 109.804688 91.546875 109.164062 91.566406 C 81.140625 92.601562 53.089844 92.847656 25.054688 92.582031 Z M 7.410156 92.632812 " fill-opacity="1" fill-rule="nonzero"/><path stroke-linecap="round" transform="matrix(0.64332, 0, 0, 0.642265, -62.487707, -89.531757)" fill="none" stroke-linejoin="round" d="M 121.342258 281.651644 C 118.567347 272.011691 118.518771 261.599325 121.202602 251.928961 " stroke="#365fa0" stroke-width="0.835" stroke-opacity="1" stroke-miterlimit="10"/><path stroke-linecap="round" transform="matrix(0.64332, 0, 0, 0.642265, -62.487707, -89.531757)" fill="none" stroke-linejoin="round" d="M 238.617159 281.742874 C 240.742364 271.762329 240.827372 263.898317 238.938976 253.869116 " stroke="#365fa0" stroke-width="0.835" stroke-opacity="1" stroke-miterlimit="10"/><path stroke-linecap="round" transform="matrix(0.64332, 0, 0, 0.642265, -62.487707, -89.531757)" fill="none" stroke-linejoin="round" d="M 231.08786 281.098183 C 232.848744 273.361892 232.818384 263.691529 230.990708 255.96132 " stroke="#365fa0" stroke-width="0.835" stroke-opacity="1" stroke-miterlimit="10"/><path stroke-linecap="round" transform="matrix(0.64332, 0, 0, 0.642265, -62.487707, -89.531757)" fill="none" stroke-linejoin="round" d="M 131.767908 271.738001 C 134.372802 270.497275 136.479792 268.289513 137.609187 265.637766 C 136.437288 267.480609 137.232722 270.588505 139.400431 270.789211 C 140.869859 270.929097 142.120694 269.712699 142.818976 268.417235 C 143.517257 267.127853 143.911938 265.64993 144.847029 264.512598 C 144.330907 266.008767 144.282331 267.66915 144.7013 269.207894 C 144.798452 269.572813 144.938109 269.949896 145.247782 270.150602 C 145.642463 270.412128 146.152512 270.308734 146.589697 270.187094 C 149.917161 269.250468 152.831729 266.921066 154.477245 263.880071 C 154.082564 265.46747 154.088636 267.170427 154.507605 268.751744 C 154.641189 269.262632 154.877998 269.828257 155.388047 269.998552 C 155.807016 270.138438 156.262417 269.96206 156.651026 269.749191 C 158.879456 268.581449 160.707132 266.647376 161.757591 264.360548 C 161.569358 265.552618 161.387198 266.787262 161.739375 267.94284 C 162.091552 269.092336 163.160226 270.120192 164.362485 270.02288 C 164.957543 269.968142 165.497952 269.651879 166.008001 269.311287 C 167.93283 268.027988 169.620851 266.410178 170.980982 264.561254 C 171.18743 265.58911 170.798821 266.647376 170.738101 267.69956 C 170.677381 268.751744 171.199574 270.028962 172.250033 270.132356 C 172.857235 270.187094 173.428004 269.810011 173.907693 269.439009 C 175.577497 268.161791 177.101573 266.68995 178.437417 265.072141 C 178.139888 265.899291 177.848431 266.769016 177.982015 267.650904 C 178.109528 268.520629 178.819953 269.372107 179.700396 269.359943 C 180.307597 269.347779 180.841935 268.95245 181.30948 268.557121 C 182.560315 267.5171 183.738286 266.398014 184.837321 265.218108 C 183.768646 266.148653 184.017598 268.058398 185.146993 268.909876 C 186.288532 269.749191 187.97048 269.591059 189.112019 268.757826 C 190.25963 267.930676 190.92148 266.56831 191.200792 265.181616 " stroke="#365fa0" stroke-width="0.835" stroke-opacity="1" stroke-miterlimit="10"/><path fill="#d7c8b5" d="M 15.464844 72.917969 C 13.609375 70.257812 13.757812 64.558594 15.226562 61.90625 C 43.570312 62.023438 71.726562 60.335938 100.074219 60.449219 C 100.644531 60.449219 101.242188 60.457031 101.738281 60.648438 C 102.390625 60.898438 102.703125 61.402344 102.949219 61.875 C 103.765625 63.476562 104.34375 71.761719 101.625 72.839844 C 101.167969 73.019531 100.605469 73.039062 100.074219 73.050781 C 76.65625 73.628906 53.652344 73.039062 30.222656 72.890625 Z M 15.464844 72.917969 " fill-opacity="1" fill-rule="nonzero"/><path stroke-linecap="round" transform="matrix(0.64332, 0, 0, 0.642265, -62.487707, -89.531757)" fill="none" stroke-linejoin="round" d="M 142.072118 248.881884 C 145.800335 249.210312 150.390778 249.502247 153.542154 247.483027 C 155.327327 246.327449 156.899979 244.362966 155.551991 242.361992 C 153.870043 239.862294 150.202546 239.868376 147.530859 239.722408 C 142.472871 239.442637 136.279415 239.381817 131.962212 242.422811 C 126.369886 246.327449 139.588663 248.662933 142.072118 248.881884 Z M 142.072118 248.881884 " stroke="#365fa0" stroke-width="0.835" stroke-opacity="1" stroke-miterlimit="10"/><path stroke-linecap="round" transform="matrix(0.64332, 0, 0, 0.642265, -62.487707, -89.531757)" fill="none" stroke-linejoin="round" d="M 161.089669 249.167738 C 160.76178 246.090251 160.421748 243.0006 160.087787 239.917032 " stroke="#365fa0" stroke-width="0.835" stroke-opacity="1" stroke-miterlimit="10"/><path stroke-linecap="round" transform="matrix(0.64332, 0, 0, 0.642265, -62.487707, -89.531757)" fill="none" stroke-linejoin="round" d="M 164.489998 249.757691 C 164.028525 246.108497 163.779572 242.441057 163.761356 238.761454 " stroke="#365fa0" stroke-width="0.835" stroke-opacity="1" stroke-miterlimit="10"/><path stroke-linecap="round" transform="matrix(0.64332, 0, 0, 0.642265, -62.487707, -89.531757)" fill="none" stroke-linejoin="round" d="M 240.062299 248.979196 C 240.123019 245.962529 240.00765 242.927617 239.710122 239.917032 " stroke="#365fa0" stroke-width="0.835" stroke-opacity="1" stroke-miterlimit="10"/><path stroke-linecap="round" transform="matrix(0.64332, 0, 0, 0.642265, -62.487707, -89.531757)" fill="none" stroke-linejoin="round" d="M 243.942316 248.790655 C 243.74194 245.050231 243.438339 241.309807 243.01937 237.581548 " stroke="#365fa0" stroke-width="0.835" stroke-opacity="1" stroke-miterlimit="10"/><path fill="#ef7e6b" d="M 4.167969 61.824219 C 0.105469 53.800781 0.699219 43.277344 3.898438 37.515625 C 35.855469 37.765625 67.964844 37.265625 99.925781 37.515625 C 100.566406 37.519531 101.242188 37.535156 101.804688 37.957031 C 102.535156 38.511719 102.898438 39.613281 103.167969 40.667969 C 104.085938 44.199219 104.878906 57.664062 101.808594 60.039062 C 101.289062 60.445312 100.664062 60.480469 100.058594 60.507812 C 73.65625 61.792969 47.222656 62.085938 20.808594 61.761719 Z M 4.167969 61.824219 " fill-opacity="1" fill-rule="nonzero"/><path stroke-linecap="round" transform="matrix(0.64332, 0, 0, 0.642265, -62.487707, -89.531757)" fill="none" stroke-linejoin="round" d="M 115.62242 226.408933 C 121.888739 226.360277 128.148987 226.329867 134.421379 226.329867 C 133.972049 219.82822 133.52272 213.332655 133.067319 206.818844 C 133.049103 206.569483 133.030887 206.301875 132.873015 206.10117 C 132.660494 205.82748 132.277957 205.778824 131.937924 205.742332 C 126.029854 205.188871 120.091423 205.061149 114.171208 205.371331 C 114.729833 210.297742 115.640636 215.21199 115.640636 220.168812 Z M 115.62242 226.408933 " stroke="#365fa0" stroke-width="0.835" stroke-opacity="1" stroke-miterlimit="10"/><path stroke-linecap="round" transform="matrix(0.64332, 0, 0, 0.642265, -62.487707, -89.531757)" fill="none" stroke-linejoin="round" d="M 142.13891 216.039141 C 142.339286 217.632622 143.990874 218.87943 145.569598 218.648314 C 147.148322 218.417199 148.380941 216.750733 148.119845 215.169416 C 148.957783 216.64734 150.190402 218.070525 151.860206 218.368543 C 153.53001 218.672642 155.497343 217.249457 155.169454 215.589073 C 156.207769 216.872373 157.731845 217.979295 159.371289 217.802918 C 161.010733 217.620458 162.370864 215.582991 161.399342 214.238872 C 162.407296 215.722877 163.548835 217.310276 165.267216 217.790754 C 166.991668 218.277313 169.250458 216.848045 168.8072 215.12076 C 169.803011 216.732487 171.339231 217.997541 173.118331 218.642232 C 173.749821 217.249457 174.120214 215.741123 174.211294 214.208462 C 175.960034 215.631647 177.052997 218.611822 179.269283 218.222575 C 180.392605 218.021869 181.169823 216.878455 181.266976 215.741123 C 181.3702 214.597709 180.933015 213.490787 180.392605 212.481177 " stroke="#365fa0" stroke-width="0.835" stroke-opacity="1" stroke-miterlimit="10"/><path stroke-linecap="round" transform="matrix(0.64332, 0, 0, 0.642265, -62.487707, -89.531757)" fill="none" stroke-linejoin="round" d="M 214.068002 225.861554 C 214.499115 219.870794 214.590195 213.849624 214.329098 207.852783 " stroke="#365fa0" stroke-width="0.835" stroke-opacity="1" stroke-miterlimit="10"/><path stroke-linecap="round" transform="matrix(0.64332, 0, 0, 0.642265, -62.487707, -89.531757)" fill="none" stroke-linejoin="round" d="M 220.990099 225.210781 C 220.63185 219.207857 220.261457 213.211016 219.897136 207.220256 " stroke="#365fa0" stroke-width="0.835" stroke-opacity="1" stroke-miterlimit="10"/><path stroke-linecap="round" transform="matrix(0.64332, 0, 0, 0.642265, -62.487707, -89.531757)" fill="none" stroke-linejoin="round" d="M 226.072376 225.332421 C 226.157384 219.329497 226.248464 212.79744 226.351688 206.800598 C 233.298074 206.800598 240.960957 208.138636 248.289879 207.840619 C 249.401058 210.328152 249.898963 213.490787 249.880747 216.069551 C 249.862531 219.140955 249.401058 221.701473 248.150223 224.791124 C 242.539681 224.699894 236.910923 224.791124 231.318597 225.338503 L 226.072376 225.338503 Z M 226.072376 225.332421 " stroke="#365fa0" stroke-width="0.835" stroke-opacity="1" stroke-miterlimit="10"/><path fill="#98d4e1" d="M 20.261719 37.488281 C 16.519531 31.472656 17.058594 22.679688 20.191406 18.472656 C 50.652344 19.28125 81.261719 19.53125 111.722656 20.339844 C 112.335938 20.359375 112.976562 20.378906 113.503906 20.699219 C 114.195312 21.125 114.523438 21.953125 114.765625 22.734375 C 115.589844 25.371094 116.136719 35.363281 113.175781 37.066406 C 112.675781 37.355469 112.078125 37.367188 111.503906 37.378906 C 86.320312 37.816406 62.453125 38.226562 37.277344 37.476562 Z M 20.261719 37.488281 " fill-opacity="1" fill-rule="nonzero"/><path stroke-linecap="round" transform="matrix(0.64332, 0, 0, 0.642265, -62.487707, -89.531757)" fill-opacity="1" fill="#98d4e1" fill-rule="nonzero" stroke-linejoin="round" d="M 270.452734 197.598548 C 246.188962 198.018206 222.720623 198.431781 199.05798 198.401371 C 184.539792 198.377043 169.948739 198.200665 155.072302 197.750598 " stroke="#365fa0" stroke-width="0.835" stroke-opacity="1" stroke-miterlimit="10"/><path stroke-linecap="round" transform="matrix(0.64332, 0, 0, 0.642265, -62.487707, -89.531757)" fill="none" stroke-linejoin="round" d="M 128.51938 168.161719 C 156.068113 168.891557 183.68971 169.329461 211.311307 169.822102 C 220.097513 169.96807 228.877647 170.132283 237.65778 170.308661 C 248.708848 170.527613 259.759916 170.776974 270.798839 171.06891 C 271.752146 171.09932 272.747956 171.12973 273.567678 171.628453 C 274.642425 172.29139 275.152474 173.580771 275.528939 174.797169 " stroke="#365fa0" stroke-width="0.835" stroke-opacity="1" stroke-miterlimit="10"/><path stroke-linecap="round" transform="matrix(0.64332, 0, 0, 0.642265, -62.487707, -89.531757)" fill="none" stroke-linejoin="round" d="M 171.381735 190.93877 C 171.120638 185.890718 170.871686 180.830503 170.610589 175.782452 " stroke="#365fa0" stroke-width="0.835" stroke-opacity="1" stroke-miterlimit="10"/><path stroke-linecap="round" transform="matrix(0.64332, 0, 0, 0.642265, -62.487707, -89.531757)" fill="none" stroke-linejoin="round" d="M 175.018872 191.97879 C 174.648479 186.000194 174.508823 179.979024 174.599903 173.970019 " stroke="#365fa0" stroke-width="0.835" stroke-opacity="1" stroke-miterlimit="10"/><path stroke-linecap="round" transform="matrix(0.64332, 0, 0, 0.642265, -62.487707, -89.531757)" fill="none" stroke-linejoin="round" d="M 256.262435 192.368037 C 256.432451 187.417298 256.402091 182.47264 256.189571 177.527983 " stroke="#365fa0" stroke-width="0.835" stroke-opacity="1" stroke-miterlimit="10"/><path stroke-linecap="round" transform="matrix(0.64332, 0, 0, 0.642265, -62.487707, -89.531757)" fill="none" stroke-linejoin="round" d="M 260.427837 192.143004 C 260.342829 186.012358 260.142453 179.887795 259.820636 173.781477 " stroke="#365fa0" stroke-width="0.835" stroke-opacity="1" stroke-miterlimit="10"/><path stroke-linecap="round" transform="matrix(0.64332, 0, 0, 0.642265, -62.487707, -89.531757)" fill-opacity="1" fill="#d7c8b5" fill-rule="nonzero" stroke-linejoin="round" d="M 181.030167 192.970154 C 180.981591 187.040214 181.46128 180.441256 181.412704 174.511316 C 190.939696 174.821497 208.099211 175.107351 218.06946 175.32022 C 218.658445 181.3718 218.039099 186.882083 217.692995 193.730403 C 208.827852 193.547943 198.900108 193.347238 186.579989 193.091794 Z M 181.030167 192.970154 " stroke="#365fa0" stroke-width="0.835" stroke-opacity="1" stroke-miterlimit="10"/><path stroke-linecap="round" transform="matrix(0.64332, 0, 0, 0.642265, -62.487707, -89.531757)" fill="none" stroke-linejoin="round" d="M 163.099506 191.461821 C 160.858933 189.977815 158.247966 188.998615 155.539847 188.621532 C 157.112499 188.901303 158.751943 188.810073 160.269947 188.37217 C 160.73142 188.232284 161.247542 188.001169 161.33255 187.551101 C 161.399342 187.1801 161.138245 186.827345 160.871077 186.559737 C 159.401649 185.027076 157.240012 184.108695 155.041942 184.060039 C 156.827115 184.248581 158.660863 184.078285 160.379243 183.579562 C 161.247542 183.318037 162.219064 182.788904 162.212992 181.937425 C 162.188704 181.152848 161.33255 180.648043 160.54926 180.33178 C 159.158768 179.760073 157.707557 179.328252 156.232057 179.030234 C 158.181174 179.547203 160.48854 179.99727 162.042976 178.786954 C 162.92949 178.087526 162.298 176.792062 161.709015 176.098715 C 160.919653 175.168171 159.589881 174.681611 158.369406 174.480906 " stroke="#365fa0" stroke-width="0.835" stroke-opacity="1" stroke-miterlimit="10"/><path fill="#ef7e6b" d="M 111.75 4.703125 C 111.363281 5.355469 111.433594 8.457031 111.902344 10.828125 C 113.03125 16.507812 113.8125 23.582031 114.832031 29.304688 C 118.644531 50.785156 121.339844 69.011719 125.773438 90.390625 C 125.941406 91.195312 126.160156 92.070312 126.828125 92.542969 C 127.421875 92.960938 128.207031 92.9375 128.933594 92.910156 C 134.613281 92.730469 146.257812 90.855469 147.125 88.550781 C 148.398438 86.960938 139.703125 49.421875 138.929688 45.570312 C 137.367188 37.789062 136.285156 31.167969 134.839844 23.367188 C 133.957031 18.585938 132.535156 11.347656 131.371094 6.5625 C 129.800781 0.0820312 127.695312 -0.0195312 114.984375 3.128906 C 113.28125 3.550781 112.046875 4.199219 111.75 4.703125 Z M 111.75 4.703125 " fill-opacity="1" fill-rule="nonzero"/><path stroke-linecap="round" transform="matrix(0.64332, 0, 0, 0.642265, -62.487707, -89.531757)" fill="none" stroke-linejoin="round" d="M 273.931999 167.437962 C 282.797141 164.178015 292.050892 161.921597 301.432156 160.717363 " stroke="#365fa0" stroke-width="0.624" stroke-opacity="1" stroke-miterlimit="10"/><path stroke-linecap="round" transform="matrix(0.64332, 0, 0, 0.642265, -62.487707, -89.531757)" fill="none" stroke-linejoin="round" d="M 277.502344 187.812627 C 287.13256 185.629193 296.750632 183.439676 306.380848 181.262324 " stroke="#365fa0" stroke-width="0.624" stroke-opacity="1" stroke-miterlimit="10"/><path fill="#fdd28a" d="M 120.273438 37.257812 C 121.386719 43.6875 122.949219 52.050781 124.203125 58.222656 C 124.234375 58.394531 124.292969 58.582031 124.441406 58.683594 C 124.597656 58.792969 124.808594 58.78125 124.996094 58.753906 C 129.082031 58.246094 133.003906 57.085938 137.089844 56.578125 C 135.199219 48.921875 134.8125 42.738281 132.921875 35.074219 C 125.984375 36.269531 120.273438 37.257812 120.273438 37.257812 Z M 120.273438 37.257812 " fill-opacity="1" fill-rule="nonzero"/><path stroke-linecap="round" transform="matrix(0.64332, 0, 0, 0.642265, -62.487707, -89.531757)" fill="none" stroke-linejoin="round" d="M 289.840679 262.0129 C 299.677343 260.151811 309.52008 258.302886 319.362817 256.441797 " stroke="#365fa0" stroke-width="0.624" stroke-opacity="1" stroke-miterlimit="10"/><path stroke-linecap="round" transform="matrix(0.64332, 0, 0, 0.642265, -62.487707, -89.531757)" fill="none" stroke-linejoin="round" d="M 290.739337 239.041225 C 291.559059 238.220157 292.087324 237.119317 292.208765 235.969821 C 292.257341 236.5172 292.311989 237.088907 292.609518 237.551138 C 292.907047 238.007287 293.55068 238.299223 294.030369 238.037697 C 294.297538 237.891729 294.467554 237.599794 294.619355 237.332186 C 295.007964 236.590183 295.341925 235.829935 295.609093 235.039276 C 295.797326 235.708295 296.040206 236.450298 296.617048 236.827381 C 297.297113 237.277448 298.262564 237.088907 298.869765 236.54761 C 299.476967 236.012394 299.798784 235.209572 299.9688 234.418913 C 299.762352 235.312966 300.551714 236.231346 301.462516 236.359068 C 302.367246 236.492872 303.271976 236.00023 303.879178 235.312966 C 304.480307 234.619619 304.838556 233.749894 305.178589 232.898416 C 305.087509 233.622173 305.312174 234.400667 305.828295 234.89939 C 306.362632 235.398114 307.20057 235.592737 307.850276 235.258228 C 308.269245 235.05144 308.572846 234.662193 308.85823 234.291191 C 309.562584 233.378893 310.279082 232.430103 310.467314 231.298853 " stroke="#365fa0" stroke-width="0.624" stroke-opacity="1" stroke-miterlimit="10"/></svg>