<svg xmlns="http://www.w3.org/2000/svg" xmlns:xlink="http://www.w3.org/1999/xlink" width="500" zoomAndPan="magnify" viewBox="0 0 375 374.999991" height="500" preserveAspectRatio="xMidYMid meet" version="1.0"><defs><clipPath id="id1"><path d="M 0 262.5 L 375 262.5 L 375 375 L 0 375 Z M 0 262.5 " clip-rule="nonzero"/></clipPath><clipPath id="id2"><path d="M 15.445312 37.300781 L 375 37.300781 L 375 375 L 15.445312 375 Z M 15.445312 37.300781 " clip-rule="nonzero"/></clipPath><clipPath id="id3"><path d="M 4 73 L 115 73 L 115 93.75 L 4 93.75 Z M 4 73 " clip-rule="nonzero"/></clipPath><clipPath id="id4"><path d="M 112 1 L 149 1 L 149 93.75 L 112 93.75 Z M 112 1 " clip-rule="nonzero"/></clipPath></defs><g clip-path="url(#id1)"><path fill="#ff5757" d="M 0 262.5 L 375 262.5 L 375 375 L 0 375 L 0 262.5 " fill-opacity="1" fill-rule="nonzero"/></g><path fill="#000000" d="M 392.285156 368.742188 C 392.484375 368.742188 392.6875 368.742188 392.886719 368.792969 C 394.242188 369.144531 395.042969 370.5 394.742188 371.800781 L 386.015625 407.316406 C 385.816406 408.167969 385.164062 408.871094 384.261719 409.121094 C 383.410156 409.375 382.457031 409.121094 381.804688 408.519531 L 355.421875 383.1875 C 354.421875 382.234375 354.371094 380.632812 355.375 379.628906 C 356.328125 378.625 357.929688 378.574219 358.933594 379.578125 L 382.15625 401.898438 L 389.878906 370.597656 C 390.128906 369.546875 391.132812 368.742188 392.285156 368.742188 Z M 392.285156 368.742188 " fill-opacity="1" fill-rule="nonzero"/><g clip-path="url(#id2)"><path fill="#000000" d="M 18.304688 37.578125 C 19.257812 37.578125 20.210938 38.128906 20.609375 39.082031 C 23.269531 45.203125 25.925781 51.320312 28.636719 57.441406 C 29.1875 58.695312 28.636719 60.199219 27.382812 60.75 C 26.078125 61.304688 24.625 60.75 24.070312 59.496094 C 21.363281 53.378906 18.707031 47.207031 16.046875 41.089844 C 15.496094 39.835938 16.097656 38.328125 17.351562 37.777344 C 17.652344 37.628906 17.953125 37.578125 18.304688 37.578125 Z M 34.703125 74.195312 C 35.65625 74.195312 36.558594 74.695312 36.960938 75.648438 C 40.070312 82.121094 42.980469 87.9375 45.9375 93.457031 C 46.589844 94.660156 46.136719 96.214844 44.882812 96.867188 C 43.628906 97.519531 42.125 97.066406 41.472656 95.8125 C 38.515625 90.246094 35.554688 84.328125 32.398438 77.804688 C 31.792969 76.550781 32.347656 75.046875 33.601562 74.445312 C 33.953125 74.296875 34.351562 74.195312 34.703125 74.195312 Z M 366.609375 82.824219 C 368.8125 82.921875 370.667969 82.921875 372.726562 83.074219 C 374.082031 83.171875 375.132812 84.378906 375.03125 85.78125 C 374.933594 87.136719 373.679688 88.140625 372.324219 88.089844 C 370.46875 87.9375 368.613281 87.839844 366.707031 87.839844 C 366.707031 87.839844 366.65625 87.839844 366.65625 87.839844 C 362.292969 87.839844 357.679688 88.238281 353.015625 89.09375 C 351.613281 89.292969 350.359375 88.441406 350.109375 87.035156 C 349.855469 85.683594 350.757812 84.378906 352.113281 84.125 C 357.078125 83.273438 361.945312 82.824219 366.609375 82.824219 Z M 391.832031 87.988281 C 392.183594 87.988281 392.535156 88.039062 392.886719 88.191406 C 397.101562 90.097656 401.113281 92.554688 404.773438 95.464844 C 406.578125 96.917969 408.332031 98.472656 409.988281 100.128906 C 410.941406 101.132812 410.941406 102.6875 409.9375 103.691406 C 408.9375 104.644531 407.382812 104.644531 406.378906 103.640625 C 404.875 102.132812 403.269531 100.679688 401.613281 99.375 C 398.253906 96.71875 394.59375 94.511719 390.730469 92.753906 C 389.476562 92.203125 388.925781 90.699219 389.476562 89.445312 C 389.976562 88.539062 390.882812 87.988281 391.832031 87.988281 Z M 333.257812 89.542969 C 334.257812 89.542969 335.210938 90.144531 335.613281 91.148438 C 336.117188 92.453125 335.464844 93.90625 334.160156 94.410156 C 328.191406 96.667969 322.222656 99.527344 316.355469 102.785156 C 315.152344 103.4375 313.597656 103.039062 312.945312 101.832031 C 312.242188 100.628906 312.695312 99.125 313.898438 98.421875 C 319.964844 95.011719 326.183594 92.101562 332.355469 89.746094 C 332.65625 89.59375 332.957031 89.542969 333.257812 89.542969 Z M 298.300781 109.058594 C 299.054688 109.058594 299.804688 109.40625 300.308594 110.058594 C 301.160156 111.164062 300.910156 112.71875 299.804688 113.570312 C 297.449219 115.328125 295.089844 117.183594 292.882812 119.039062 C 290.074219 121.398438 287.316406 123.804688 284.558594 126.261719 C 283.507812 127.214844 281.953125 127.113281 281 126.0625 C 280.097656 125.007812 280.144531 123.453125 281.199219 122.5 C 284.007812 119.992188 286.765625 117.535156 289.625 115.175781 C 291.933594 113.269531 294.289062 111.363281 296.746094 109.507812 C 297.246094 109.207031 297.75 109.058594 298.300781 109.058594 Z M 53.660156 109.558594 C 54.511719 109.558594 55.316406 109.960938 55.816406 110.761719 C 59.429688 116.632812 63.140625 122.148438 66.902344 127.265625 C 67.703125 128.367188 67.503906 129.972656 66.347656 130.777344 C 65.246094 131.628906 63.640625 131.378906 62.839844 130.226562 C 59.027344 125.007812 55.214844 119.339844 51.554688 113.421875 C 50.851562 112.21875 51.203125 110.710938 52.355469 109.960938 C 52.757812 109.660156 53.210938 109.558594 53.660156 109.558594 Z M 419.519531 115.878906 C 420.46875 115.878906 421.375 116.429688 421.773438 117.332031 C 424.632812 123.402344 426.6875 130.074219 427.894531 137.097656 C 428.144531 138.453125 427.191406 139.753906 425.835938 140.007812 C 424.484375 140.257812 423.179688 139.304688 422.929688 137.949219 C 421.824219 131.378906 419.917969 125.160156 417.261719 119.492188 C 416.660156 118.238281 417.210938 116.730469 418.464844 116.128906 C 418.816406 115.929688 419.167969 115.878906 419.519531 115.878906 Z M 268.160156 135.492188 C 268.8125 135.492188 269.515625 135.742188 270.015625 136.292969 C 270.96875 137.296875 270.917969 138.902344 269.914062 139.855469 C 265 144.421875 260.085938 149.035156 255.070312 153.449219 C 254.015625 154.351562 252.460938 154.300781 251.507812 153.25 C 250.605469 152.195312 250.65625 150.640625 251.710938 149.6875 C 256.675781 145.273438 261.539062 140.707031 266.453125 136.144531 C 266.90625 135.742188 267.558594 135.492188 268.160156 135.492188 Z M 77.484375 141.761719 C 78.183594 141.761719 78.835938 142.0625 79.339844 142.613281 C 80.242188 143.617188 81.195312 144.621094 82.148438 145.625 C 85.707031 149.386719 89.46875 153 93.429688 156.410156 C 94.484375 157.3125 94.585938 158.917969 93.683594 159.972656 C 92.78125 161.023438 91.175781 161.125 90.121094 160.222656 C 86.058594 156.710938 82.097656 152.949219 78.4375 149.085938 C 77.484375 148.03125 76.480469 147.027344 75.578125 145.976562 C 74.625 144.921875 74.726562 143.367188 75.777344 142.414062 C 76.28125 141.960938 76.882812 141.761719 77.484375 141.761719 Z M 426.238281 154.953125 C 426.289062 154.953125 426.386719 154.953125 426.4375 154.953125 C 427.84375 155.054688 428.847656 156.257812 428.746094 157.664062 C 428.695312 158.367188 428.644531 159.066406 428.542969 159.769531 C 427.941406 165.640625 426.6875 171.707031 424.933594 177.828125 C 424.53125 179.132812 423.179688 179.933594 421.824219 179.535156 C 420.46875 179.132812 419.71875 177.777344 420.121094 176.421875 C 421.773438 170.605469 422.929688 164.835938 423.53125 159.21875 C 423.578125 158.566406 423.679688 157.863281 423.730469 157.210938 C 423.878906 155.957031 424.984375 154.953125 426.238281 154.953125 Z M 237.96875 161.925781 C 238.722656 161.925781 239.472656 162.277344 239.972656 162.878906 C 240.828125 163.984375 240.625 165.539062 239.523438 166.390625 C 233.65625 170.90625 228.1875 174.667969 222.722656 177.878906 C 221.519531 178.582031 220.015625 178.179688 219.261719 177.027344 C 218.558594 175.820312 218.960938 174.316406 220.113281 173.613281 C 225.378906 170.503906 230.695312 166.84375 236.414062 162.429688 C 236.914062 162.128906 237.46875 161.925781 237.96875 161.925781 Z M 107.875 167.746094 C 108.328125 167.746094 108.828125 167.894531 109.230469 168.148438 C 114.796875 171.757812 120.613281 174.96875 126.480469 177.628906 C 127.734375 178.230469 128.285156 179.683594 127.734375 180.9375 C 127.183594 182.191406 125.679688 182.742188 124.425781 182.191406 C 118.355469 179.433594 112.339844 176.121094 106.519531 172.359375 C 105.367188 171.609375 105.015625 170.054688 105.769531 168.898438 C 106.269531 168.148438 107.074219 167.746094 107.875 167.746094 Z M 203.414062 181.992188 C 204.417969 181.992188 205.371094 182.59375 205.769531 183.597656 C 206.273438 184.902344 205.621094 186.355469 204.316406 186.808594 C 200.503906 188.261719 196.542969 189.464844 192.632812 190.367188 C 189.921875 191.019531 187.164062 191.523438 184.40625 191.921875 C 183.050781 192.125 181.75 191.171875 181.546875 189.816406 C 181.347656 188.460938 182.300781 187.160156 183.652344 186.957031 C 186.261719 186.605469 188.871094 186.105469 191.425781 185.503906 C 195.140625 184.601562 198.851562 183.496094 202.511719 182.09375 C 202.863281 182.042969 203.164062 181.992188 203.414062 181.992188 Z M 144.285156 184.25 C 144.484375 184.25 144.738281 184.300781 144.9375 184.347656 C 151.40625 186.105469 157.875 187.207031 164.195312 187.660156 C 165.597656 187.761719 166.601562 188.964844 166.503906 190.367188 C 166.402344 191.773438 165.148438 192.875 163.792969 192.675781 C 157.125 192.175781 150.351562 191.019531 143.582031 189.164062 C 142.230469 188.8125 141.476562 187.410156 141.828125 186.105469 C 142.179688 184.953125 143.183594 184.25 144.285156 184.25 Z M 415.503906 193.429688 C 415.855469 193.429688 416.207031 193.480469 416.558594 193.679688 C 417.8125 194.28125 418.363281 195.734375 417.8125 196.988281 C 415.15625 202.808594 412.046875 208.675781 408.332031 214.949219 C 407.632812 216.152344 406.078125 216.554688 404.875 215.851562 C 403.667969 215.148438 403.269531 213.59375 403.96875 212.390625 C 407.582031 206.269531 410.640625 200.550781 413.25 194.882812 C 413.648438 193.929688 414.550781 193.429688 415.503906 193.429688 Z M 395.292969 228.039062 C 395.796875 228.039062 396.296875 228.191406 396.699219 228.492188 C 397.851562 229.292969 398.152344 230.847656 397.351562 231.953125 C 393.539062 237.519531 389.527344 242.988281 385.464844 248.304688 C 384.613281 249.410156 383.058594 249.609375 381.953125 248.757812 C 380.851562 247.902344 380.648438 246.347656 381.503906 245.246094 C 385.515625 240.027344 389.476562 234.609375 393.238281 229.144531 C 393.738281 228.441406 394.492188 228.039062 395.292969 228.039062 Z M 370.769531 259.742188 C 371.371094 259.742188 371.921875 259.941406 372.425781 260.34375 C 373.476562 261.246094 373.578125 262.851562 372.675781 263.90625 C 368.261719 268.972656 363.648438 273.9375 358.984375 278.753906 C 358.03125 279.757812 356.425781 279.757812 355.421875 278.804688 C 354.421875 277.851562 354.421875 276.246094 355.375 275.242188 C 359.988281 270.527344 364.550781 265.609375 368.863281 260.59375 C 369.367188 260.042969 370.066406 259.742188 370.769531 259.742188 Z M 231.449219 272.53125 C 232.703125 272.53125 233.804688 273.484375 233.957031 274.738281 C 234.105469 276.09375 233.152344 277.347656 231.75 277.5 C 225.78125 278.203125 220.164062 279.707031 215.097656 282.011719 C 214.546875 282.265625 213.996094 282.515625 213.445312 282.816406 C 212.191406 283.417969 210.6875 282.964844 210.085938 281.710938 C 209.480469 280.457031 209.933594 278.953125 211.1875 278.351562 C 211.789062 278.050781 212.441406 277.75 213.042969 277.449219 C 218.609375 274.941406 224.726562 273.285156 231.199219 272.53125 C 231.25 272.53125 231.347656 272.53125 231.449219 272.53125 Z M 251.460938 272.933594 C 251.558594 272.933594 251.710938 272.933594 251.808594 272.933594 C 258.179688 273.835938 264.898438 275.390625 271.769531 277.648438 C 273.074219 278.101562 273.828125 279.503906 273.375 280.808594 C 272.925781 282.113281 271.519531 282.816406 270.214844 282.414062 C 263.644531 280.257812 257.226562 278.753906 251.160156 277.898438 C 249.804688 277.699219 248.851562 276.445312 249 275.089844 C 249.152344 273.835938 250.207031 272.933594 251.460938 272.933594 Z M 289.523438 285.023438 C 289.875 285.023438 290.277344 285.125 290.628906 285.273438 C 296.695312 288.183594 302.664062 291.542969 308.382812 295.207031 C 309.535156 295.957031 309.886719 297.511719 309.132812 298.667969 C 308.382812 299.820312 306.828125 300.171875 305.671875 299.417969 C 300.105469 295.859375 294.339844 292.597656 288.472656 289.789062 C 287.21875 289.1875 286.714844 287.683594 287.316406 286.429688 C 287.71875 285.574219 288.570312 285.023438 289.523438 285.023438 Z M 342.785156 288.484375 C 343.488281 288.484375 344.140625 288.734375 344.640625 289.285156 C 345.59375 290.289062 345.492188 291.894531 344.492188 292.847656 C 339.527344 297.363281 334.359375 301.828125 329.195312 306.039062 C 328.140625 306.894531 326.535156 306.742188 325.683594 305.691406 C 324.832031 304.636719 324.980469 303.03125 326.035156 302.179688 C 331.148438 298.015625 336.214844 293.652344 341.128906 289.1875 C 341.53125 288.683594 342.132812 288.484375 342.785156 288.484375 Z M 196.945312 290.84375 C 197.496094 290.84375 198.046875 291.042969 198.5 291.394531 C 199.601562 292.246094 199.753906 293.851562 198.898438 294.90625 C 194.839844 300.070312 191.980469 305.890625 190.726562 311.808594 C 190.425781 313.164062 189.121094 314.015625 187.714844 313.714844 C 186.363281 313.414062 185.511719 312.058594 185.8125 310.707031 C 187.265625 304.085938 190.425781 297.511719 194.988281 291.796875 C 195.488281 291.144531 196.191406 290.84375 196.945312 290.84375 Z M 323.175781 306.691406 C 323.726562 306.691406 324.28125 306.894531 324.78125 307.246094 C 329.996094 311.558594 335.011719 316.222656 339.675781 321.089844 C 340.628906 322.09375 340.578125 323.699219 339.574219 324.652344 C 338.574219 325.605469 336.96875 325.554688 336.015625 324.550781 C 331.453125 319.785156 326.585938 315.269531 321.519531 311.105469 C 320.46875 310.203125 320.316406 308.648438 321.171875 307.597656 C 321.773438 306.992188 322.472656 306.691406 323.175781 306.691406 Z M 311.691406 313.816406 C 312.445312 313.816406 313.246094 314.167969 313.746094 314.871094 C 314.550781 315.972656 314.300781 317.578125 313.195312 318.378906 C 307.730469 322.34375 302.113281 326.15625 296.496094 329.765625 C 295.34375 330.519531 293.789062 330.167969 293.035156 329.015625 C 292.28125 327.859375 292.632812 326.304688 293.789062 325.554688 C 299.355469 321.992188 304.871094 318.230469 310.238281 314.316406 C 310.636719 313.964844 311.140625 313.816406 311.691406 313.816406 Z M 189.722656 328.414062 C 190.726562 328.414062 191.628906 329.015625 192.03125 329.96875 L 192.480469 331.019531 C 194.839844 336.136719 198.648438 340.5 203.765625 344.011719 C 204.917969 344.816406 205.21875 346.371094 204.417969 347.472656 C 203.664062 348.628906 202.058594 348.929688 200.957031 348.125 C 195.039062 344.113281 190.675781 339.046875 187.917969 333.078125 C 187.714844 332.675781 187.515625 332.226562 187.367188 331.824219 C 186.863281 330.519531 187.464844 329.066406 188.71875 328.5625 C 189.070312 328.511719 189.421875 328.414062 189.722656 328.414062 Z M 277.890625 335.433594 C 278.792969 335.433594 279.644531 335.886719 280.097656 336.738281 C 280.746094 337.945312 280.347656 339.5 279.144531 340.152344 L 277.488281 341.054688 C 271.21875 344.515625 265.953125 347.125 260.988281 349.28125 C 259.734375 349.832031 258.230469 349.230469 257.679688 347.976562 C 257.125 346.722656 257.726562 345.21875 258.980469 344.664062 C 263.796875 342.609375 268.910156 340.050781 275.03125 336.691406 L 276.636719 335.785156 C 277.035156 335.535156 277.488281 335.433594 277.890625 335.433594 Z M 350.910156 335.585938 C 351.664062 335.585938 352.414062 335.9375 352.917969 336.589844 C 357.027344 342.007812 360.839844 347.675781 364.25 353.492188 C 364.953125 354.699219 364.550781 356.203125 363.347656 356.90625 C 362.144531 357.605469 360.640625 357.207031 359.9375 356 C 356.628906 350.382812 352.917969 344.867188 348.902344 339.597656 C 348.050781 338.496094 348.300781 336.941406 349.40625 336.085938 C 349.855469 335.738281 350.359375 335.585938 350.910156 335.585938 Z M 240.878906 350.484375 C 242.082031 350.484375 243.132812 351.335938 243.335938 352.539062 C 243.585938 353.894531 242.683594 355.199219 241.328125 355.449219 C 237.667969 356.152344 234.054688 356.503906 230.597656 356.605469 L 229.34375 356.605469 C 226.433594 356.605469 223.425781 356.351562 220.515625 355.851562 C 219.160156 355.601562 218.207031 354.347656 218.460938 352.941406 C 218.710938 351.585938 220.015625 350.632812 221.367188 350.886719 C 224.027344 351.335938 226.734375 351.539062 229.34375 351.539062 L 230.496094 351.539062 C 233.707031 351.488281 237.015625 351.085938 240.425781 350.484375 C 240.578125 350.484375 240.726562 350.484375 240.878906 350.484375 Z M 371.222656 370.046875 C 372.175781 370.046875 373.128906 370.597656 373.527344 371.550781 C 376.285156 377.773438 378.644531 384.191406 380.601562 390.664062 C 381 391.96875 380.25 393.371094 378.945312 393.773438 C 377.640625 394.175781 376.238281 393.421875 375.835938 392.117188 C 373.980469 385.898438 371.671875 379.628906 369.015625 373.609375 C 368.464844 372.355469 369.015625 370.847656 370.320312 370.296875 C 370.570312 370.148438 370.921875 370.046875 371.222656 370.046875 Z M 371.222656 370.046875 " fill-opacity="1" fill-rule="nonzero"/></g><g clip-path="url(#id3)"><path fill="#fdd28a" d="M 7.488281 93.382812 C 3.140625 86.855469 3.777344 78.277344 7.195312 73.589844 C 41.453125 73.789062 75.871094 73.386719 110.128906 73.589844 C 110.816406 73.59375 111.539062 73.609375 112.136719 73.945312 C 112.921875 74.390625 113.304688 75.296875 113.597656 76.152344 C 114.585938 79.027344 115.429688 89.988281 112.140625 91.925781 C 111.589844 92.246094 110.914062 92.285156 110.265625 92.304688 C 81.960938 93.347656 53.628906 93.59375 25.308594 93.328125 Z M 7.488281 93.382812 " fill-opacity="1" fill-rule="nonzero"/></g><path stroke-linecap="round" transform="matrix(0.649792, 0, 0, 0.647445, -63.113223, -90.253784)" fill="none" stroke-linejoin="round" d="M 121.342883 281.647925 C 118.571562 272.01269 118.517458 261.599155 121.198606 251.92772 " stroke="#365fa0" stroke-width="0.835" stroke-opacity="1" stroke-miterlimit="10"/><path stroke-linecap="round" transform="matrix(0.649792, 0, 0, 0.647445, -63.113223, -90.253784)" fill="none" stroke-linejoin="round" d="M 238.622053 281.738425 C 240.738115 271.75929 240.828289 263.897855 238.940664 253.870453 " stroke="#365fa0" stroke-width="0.835" stroke-opacity="1" stroke-miterlimit="10"/><path stroke-linecap="round" transform="matrix(0.649792, 0, 0, 0.647445, -63.113223, -90.253784)" fill="none" stroke-linejoin="round" d="M 231.089591 281.098891 C 232.850973 273.358123 232.820915 263.692722 230.987395 255.957987 " stroke="#365fa0" stroke-width="0.835" stroke-opacity="1" stroke-miterlimit="10"/><path stroke-linecap="round" transform="matrix(0.649792, 0, 0, 0.647445, -63.113223, -90.253784)" fill="none" stroke-linejoin="round" d="M 131.772908 271.74119 C 134.369894 270.498323 136.479945 268.290122 137.610115 265.641489 C 136.437865 267.481656 137.231388 270.588823 139.401555 270.787923 C 140.868371 270.932723 142.118772 269.707956 142.822122 268.422856 C 143.519461 267.131722 143.910211 265.647522 144.848012 264.507222 C 144.331019 266.009522 144.282927 267.668689 144.697723 269.207189 C 144.799919 269.569189 144.938185 269.949289 145.250785 270.148389 C 145.641535 270.407823 146.152516 270.311289 146.591359 270.190623 C 149.921753 269.249423 152.831339 266.920556 154.478502 263.879755 C 154.08174 265.472555 154.087751 267.167922 154.508559 268.748656 C 154.640813 269.261489 154.881275 269.828623 155.392256 269.997556 C 155.807052 270.142356 156.257918 269.961356 156.648668 269.750189 C 158.87895 268.579723 160.71247 266.649056 161.758479 264.362422 C 161.572121 265.550989 161.391775 266.787822 161.740444 267.940189 C 162.089114 269.092556 163.159168 270.118223 164.361476 270.021689 C 164.962631 269.967389 165.497658 269.647623 166.008639 269.309756 C 167.932332 268.030689 169.621575 266.407722 170.980184 264.561522 C 171.190588 265.587189 170.799838 266.649056 170.739722 267.698856 C 170.679607 268.748656 171.202611 270.027723 172.248619 270.130289 C 172.861797 270.190623 173.432893 269.810523 173.907805 269.442489 C 175.579013 268.157389 177.099934 266.691289 178.440507 265.068322 C 178.13993 265.900922 177.851376 266.769722 177.977619 267.650589 C 178.109873 268.519389 178.819234 269.370089 179.702931 269.358023 C 180.310097 269.351989 180.839113 268.947756 181.308013 268.561623 C 182.558414 267.517856 183.742687 266.401689 184.842799 265.219155 C 183.772745 266.148289 184.019218 268.060856 185.149388 268.911556 C 186.291581 269.750189 187.968801 269.587289 189.110994 268.760723 C 190.259199 267.928122 190.920468 266.570622 191.196999 265.182955 " stroke="#365fa0" stroke-width="0.835" stroke-opacity="1" stroke-miterlimit="10"/><path fill="#d7c8b5" d="M 15.621094 73.503906 C 13.75 70.824219 13.898438 65.082031 15.382812 62.40625 C 44.011719 62.523438 72.453125 60.820312 101.082031 60.9375 C 101.660156 60.9375 102.265625 60.945312 102.765625 61.136719 C 103.421875 61.390625 103.742188 61.894531 103.988281 62.375 C 104.8125 63.988281 105.398438 72.339844 102.648438 73.425781 C 102.1875 73.609375 101.621094 73.628906 101.082031 73.640625 C 77.429688 74.222656 54.195312 73.628906 30.527344 73.476562 Z M 15.621094 73.503906 " fill-opacity="1" fill-rule="nonzero"/><path stroke-linecap="round" transform="matrix(0.649792, 0, 0, 0.647445, -63.113223, -90.253784)" fill="none" stroke-linejoin="round" d="M 142.070679 248.880886 C 145.797835 249.212719 150.390653 249.502319 153.540701 247.481152 C 155.332141 246.328786 156.901153 244.361919 155.548556 242.358852 C 153.871336 239.861051 150.198284 239.867084 147.529159 239.722284 C 142.467441 239.438718 136.281564 239.378384 131.959266 242.419185 C 126.368532 246.328786 139.587912 248.657653 142.070679 248.880886 Z M 142.070679 248.880886 " stroke="#365fa0" stroke-width="0.835" stroke-opacity="1" stroke-miterlimit="10"/><path stroke-linecap="round" transform="matrix(0.649792, 0, 0, 0.647445, -63.113223, -90.253784)" fill="none" stroke-linejoin="round" d="M 161.091198 249.170486 C 160.760563 246.087452 160.417905 242.998385 160.08727 239.921384 " stroke="#365fa0" stroke-width="0.835" stroke-opacity="1" stroke-miterlimit="10"/><path stroke-linecap="round" transform="matrix(0.649792, 0, 0, 0.647445, -63.113223, -90.253784)" fill="none" stroke-linejoin="round" d="M 164.487719 249.761753 C 164.030842 246.111585 163.778357 242.437285 163.760322 238.762984 " stroke="#365fa0" stroke-width="0.835" stroke-opacity="1" stroke-miterlimit="10"/><path stroke-linecap="round" transform="matrix(0.649792, 0, 0, 0.647445, -63.113223, -90.253784)" fill="none" stroke-linejoin="round" d="M 240.058811 248.977419 C 240.118927 245.960752 240.010719 242.932018 239.710142 239.921384 " stroke="#365fa0" stroke-width="0.835" stroke-opacity="1" stroke-miterlimit="10"/><path stroke-linecap="round" transform="matrix(0.649792, 0, 0, 0.647445, -63.113223, -90.253784)" fill="none" stroke-linejoin="round" d="M 243.942267 248.790386 C 243.737875 245.049719 243.437298 241.309051 243.022501 237.580451 " stroke="#365fa0" stroke-width="0.835" stroke-opacity="1" stroke-miterlimit="10"/><path fill="#ef7e6b" d="M 4.210938 62.324219 C 0.113281 54.238281 0.710938 43.625 3.9375 37.816406 C 36.21875 38.070312 68.652344 37.566406 100.933594 37.816406 C 101.582031 37.824219 102.265625 37.835938 102.832031 38.265625 C 103.570312 38.820312 103.933594 39.933594 104.207031 40.996094 C 105.136719 44.558594 105.9375 58.128906 102.835938 60.523438 C 102.3125 60.929688 101.679688 60.96875 101.070312 60.996094 C 74.402344 62.289062 47.703125 62.589844 21.023438 62.257812 Z M 4.210938 62.324219 " fill-opacity="1" fill-rule="nonzero"/><path stroke-linecap="round" transform="matrix(0.649792, 0, 0, 0.647445, -63.113223, -90.253784)" fill="none" stroke-linejoin="round" d="M 115.619895 226.412749 C 121.889933 226.358449 128.147948 226.328282 134.417986 226.328282 C 133.967121 219.830381 133.522267 213.33248 133.071401 206.822512 C 133.047355 206.569112 133.02932 206.297612 132.867009 206.098512 C 132.662616 205.827012 132.277878 205.778746 131.941231 205.742546 C 126.031886 205.187479 120.092482 205.060779 114.171114 205.368479 C 114.730187 210.297713 115.63793 215.208847 115.63793 220.168248 Z M 115.619895 226.412749 " stroke="#365fa0" stroke-width="0.835" stroke-opacity="1" stroke-miterlimit="10"/><path stroke-linecap="round" transform="matrix(0.649792, 0, 0, 0.647445, -63.113223, -90.253784)" fill="none" stroke-linejoin="round" d="M 142.142818 216.041447 C 142.341199 217.628214 143.988361 218.877114 145.569397 218.647848 C 147.150432 218.418581 148.382798 216.747347 148.11829 215.172647 C 148.959906 216.650814 150.192272 218.068648 151.857469 218.370314 C 153.528678 218.671981 155.500464 217.248114 155.169829 215.588947 C 156.209826 216.868014 157.730746 217.978148 159.371897 217.797148 C 161.007036 217.622181 162.371656 215.582914 161.397786 214.23748 C 162.407725 215.721681 163.549918 217.308447 165.269219 217.791114 C 166.98852 218.279814 169.24886 216.849914 168.810017 215.118347 C 169.801922 216.729247 171.340876 218.002281 173.120293 218.641814 C 173.751505 217.248114 174.118209 215.739781 174.208382 214.207314 C 175.957741 215.631181 177.051841 218.611648 179.2701 218.219481 C 180.388247 218.020381 181.169747 216.880081 181.271944 215.739781 C 181.368128 214.59948 180.929286 213.489347 180.388247 212.48178 " stroke="#365fa0" stroke-width="0.835" stroke-opacity="1" stroke-miterlimit="10"/><path stroke-linecap="round" transform="matrix(0.649792, 0, 0, 0.647445, -63.113223, -90.253784)" fill="none" stroke-linejoin="round" d="M 214.070916 225.857682 C 214.497735 219.872615 214.587908 213.851347 214.329412 207.848179 " stroke="#365fa0" stroke-width="0.835" stroke-opacity="1" stroke-miterlimit="10"/><path stroke-linecap="round" transform="matrix(0.649792, 0, 0, 0.647445, -63.113223, -90.253784)" fill="none" stroke-linejoin="round" d="M 220.9902 225.212115 C 220.629508 219.208948 220.262804 213.211813 219.902111 207.220712 " stroke="#365fa0" stroke-width="0.835" stroke-opacity="1" stroke-miterlimit="10"/><path stroke-linecap="round" transform="matrix(0.649792, 0, 0, 0.647445, -63.113223, -90.253784)" fill="none" stroke-linejoin="round" d="M 226.069953 225.332782 C 226.160126 219.329614 226.2503 212.801547 226.352496 206.798379 C 233.301838 206.798379 240.960542 208.137779 248.288612 207.842146 C 249.400747 210.32788 249.899705 213.489347 249.881671 216.071614 C 249.857624 219.142581 249.400747 221.700715 248.150347 224.789782 C 242.541578 224.699282 236.908763 224.789782 231.318029 225.338815 L 226.069953 225.338815 Z M 226.069953 225.332782 " stroke="#365fa0" stroke-width="0.835" stroke-opacity="1" stroke-miterlimit="10"/><path fill="#98d4e1" d="M 20.46875 37.792969 C 16.6875 31.726562 17.234375 22.859375 20.398438 18.621094 C 51.164062 19.4375 82.082031 19.6875 112.851562 20.503906 C 113.46875 20.523438 114.117188 20.542969 114.648438 20.867188 C 115.34375 21.292969 115.675781 22.128906 115.925781 22.917969 C 116.753906 25.574219 117.308594 35.648438 114.320312 37.363281 C 113.8125 37.65625 113.207031 37.667969 112.628906 37.679688 C 87.191406 38.121094 63.082031 38.535156 37.65625 37.777344 Z M 20.46875 37.792969 " fill-opacity="1" fill-rule="nonzero"/><path stroke-linecap="round" transform="matrix(0.649792, 0, 0, 0.647445, -63.113223, -90.253784)" fill-opacity="1" fill="#98d4e1" fill-rule="nonzero" stroke-linejoin="round" d="M 270.447155 197.597544 C 246.190584 198.019878 222.721525 198.430144 199.060096 198.399978 C 184.542222 198.381878 169.95221 198.200878 155.067633 197.748378 " stroke="#365fa0" stroke-width="0.835" stroke-opacity="1" stroke-miterlimit="10"/><path stroke-linecap="round" transform="matrix(0.649792, 0, 0, 0.647445, -63.113223, -90.253784)" fill="none" stroke-linejoin="round" d="M 128.520664 168.160906 C 156.07156 168.89094 183.688583 169.331373 211.311618 169.820073 C 220.100492 169.970906 228.877343 170.127773 237.660206 170.308773 C 248.70942 170.532006 259.758634 170.779373 270.801836 171.068973 C 271.75166 171.09914 272.749576 171.129307 273.567145 171.630073 C 274.6372 172.287707 275.148181 173.57884 275.53292 174.797574 " stroke="#365fa0" stroke-width="0.835" stroke-opacity="1" stroke-miterlimit="10"/><path stroke-linecap="round" transform="matrix(0.649792, 0, 0, 0.647445, -63.113223, -90.253784)" fill="none" stroke-linejoin="round" d="M 171.382957 190.942776 C 171.118449 185.892876 170.871976 180.830908 170.607468 175.781007 " stroke="#365fa0" stroke-width="0.835" stroke-opacity="1" stroke-miterlimit="10"/><path stroke-linecap="round" transform="matrix(0.649792, 0, 0, 0.647445, -63.113223, -90.253784)" fill="none" stroke-linejoin="round" d="M 175.01994 191.98051 C 174.647224 186.001476 174.508959 179.980208 174.599132 173.971007 " stroke="#365fa0" stroke-width="0.835" stroke-opacity="1" stroke-miterlimit="10"/><path stroke-linecap="round" transform="matrix(0.649792, 0, 0, 0.647445, -63.113223, -90.253784)" fill="none" stroke-linejoin="round" d="M 256.259916 192.372677 C 256.42824 187.419309 256.398182 182.471975 256.187778 177.530674 " stroke="#365fa0" stroke-width="0.835" stroke-opacity="1" stroke-miterlimit="10"/><path stroke-linecap="round" transform="matrix(0.649792, 0, 0, 0.647445, -63.113223, -90.253784)" fill="none" stroke-linejoin="round" d="M 260.431927 192.137377 C 260.341753 186.007509 260.137361 179.889708 259.818749 173.77794 " stroke="#365fa0" stroke-width="0.835" stroke-opacity="1" stroke-miterlimit="10"/><path stroke-linecap="round" transform="matrix(0.649792, 0, 0, 0.647445, -63.113223, -90.253784)" fill-opacity="1" fill="#d7c8b5" fill-rule="nonzero" stroke-linejoin="round" d="M 181.031482 192.969977 C 180.977378 187.039209 181.458301 180.438741 181.410209 174.507974 C 190.938503 174.821707 208.101455 175.111307 218.068591 175.322474 C 218.657722 181.367875 218.038533 186.882342 217.689864 193.730177 C 208.828851 193.549177 198.897784 193.350077 186.580135 193.090643 Z M 181.031482 192.969977 " stroke="#365fa0" stroke-width="0.835" stroke-opacity="1" stroke-miterlimit="10"/><path stroke-linecap="round" transform="matrix(0.649792, 0, 0, 0.647445, -63.113223, -90.253784)" fill="none" stroke-linejoin="round" d="M 163.099053 191.461643 C 160.862759 189.977443 158.247738 189.000043 155.542544 188.619943 C 157.111557 188.897476 158.752708 188.813009 160.267616 188.372576 C 160.730505 188.227776 161.247498 187.998509 161.331659 187.552043 C 161.397786 187.177976 161.13929 186.828042 160.868771 186.562576 C 159.401954 185.030109 157.237799 184.107009 155.037575 184.058742 C 156.829014 184.251809 158.662535 184.082875 160.381836 183.582109 C 161.247498 183.322675 162.221367 182.791742 162.209344 181.941042 C 162.19131 181.150675 161.331659 180.649908 160.550159 180.330141 C 159.161493 179.756975 157.712711 179.328608 156.22786 179.032975 C 158.181611 179.551841 160.490043 179.998308 162.041021 178.791641 C 162.930729 178.091774 162.299518 176.788574 161.710386 176.100774 C 160.922874 175.171641 159.588312 174.68294 158.367969 174.477807 " stroke="#365fa0" stroke-width="0.835" stroke-opacity="1" stroke-miterlimit="10"/><g clip-path="url(#id4)"><path fill="#ef7e6b" d="M 112.875 4.738281 C 112.488281 5.398438 112.558594 8.527344 113.03125 10.914062 C 114.167969 16.640625 114.960938 23.773438 115.988281 29.542969 C 119.84375 51.195312 122.566406 69.566406 127.042969 91.121094 C 127.210938 91.929688 127.433594 92.8125 128.109375 93.289062 C 128.707031 93.710938 129.496094 93.683594 130.230469 93.660156 C 135.96875 93.476562 147.730469 91.585938 148.609375 89.261719 C 149.894531 87.664062 141.109375 49.820312 140.328125 45.9375 C 138.75 38.09375 137.660156 31.421875 136.199219 23.554688 C 135.308594 18.738281 133.871094 11.441406 132.695312 6.617188 C 131.109375 0.0859375 128.984375 -0.0195312 116.144531 3.152344 C 114.421875 3.582031 113.175781 4.234375 112.875 4.738281 Z M 112.875 4.738281 " fill-opacity="1" fill-rule="nonzero"/></g><path stroke-linecap="round" transform="matrix(0.649792, 0, 0, 0.647445, -63.113223, -90.253784)" fill="none" stroke-linejoin="round" d="M 273.927838 167.442939 C 282.800874 164.178905 292.052637 161.922438 301.430642 160.721805 " stroke="#365fa0" stroke-width="0.624" stroke-opacity="1" stroke-miterlimit="10"/><path stroke-linecap="round" transform="matrix(0.649792, 0, 0, 0.647445, -63.113223, -90.253784)" fill="none" stroke-linejoin="round" d="M 277.498694 187.811476 C 287.129184 185.627409 296.747651 183.437309 306.378141 181.259275 " stroke="#365fa0" stroke-width="0.624" stroke-opacity="1" stroke-miterlimit="10"/><path fill="#fdd28a" d="M 121.484375 37.558594 C 122.609375 44.039062 124.1875 52.46875 125.457031 58.691406 C 125.488281 58.867188 125.546875 59.054688 125.695312 59.15625 C 125.851562 59.265625 126.066406 59.253906 126.253906 59.226562 C 130.382812 58.714844 134.34375 57.542969 138.472656 57.035156 C 136.5625 49.316406 136.171875 43.082031 134.261719 35.355469 C 127.257812 36.5625 121.484375 37.558594 121.484375 37.558594 Z M 121.484375 37.558594 " fill-opacity="1" fill-rule="nonzero"/><path stroke-linecap="round" transform="matrix(0.649792, 0, 0, 0.647445, -63.113223, -90.253784)" fill="none" stroke-linejoin="round" d="M 289.840389 262.009421 C 299.681283 260.151154 309.522177 258.298921 319.35706 256.440654 " stroke="#365fa0" stroke-width="0.624" stroke-opacity="1" stroke-miterlimit="10"/><path stroke-linecap="round" transform="matrix(0.649792, 0, 0, 0.647445, -63.113223, -90.253784)" fill="none" stroke-linejoin="round" d="M 290.74212 239.040518 C 291.55969 238.219984 292.088706 237.121917 292.208937 235.969551 C 292.257029 236.518584 292.311133 237.091751 292.61171 237.550284 C 292.912287 238.008818 293.549511 238.298418 294.030434 238.038984 C 294.300953 237.888151 294.469276 237.598551 294.619565 237.327051 C 295.010315 236.590984 295.34095 235.830784 295.611469 235.040417 C 295.797827 235.710117 296.038289 236.452217 296.621408 236.832317 C 297.300713 237.278784 298.262559 237.091751 298.869725 236.548751 C 299.482902 236.011784 299.801514 235.20935 299.969837 234.418984 C 299.759433 235.311917 300.552957 236.228984 301.4607 236.361717 C 302.368442 236.488417 303.270174 235.999717 303.877339 235.311917 C 304.478494 234.618084 304.839186 233.749283 305.181844 232.898583 C 305.091671 233.622583 305.308086 234.400884 305.83109 234.90165 C 306.360106 235.402417 307.201722 235.58945 307.850969 235.257617 C 308.271776 235.052484 308.572354 234.660317 308.860908 234.292284 C 309.558246 233.38125 310.279631 232.427983 310.472001 231.29975 " stroke="#365fa0" stroke-width="0.624" stroke-opacity="1" stroke-miterlimit="10"/></svg>